<svg width="20" height="22" viewBox="0 0 20 22" fill="none" xmlns="http://www.w3.org/2000/svg">
  <path
    d="M18 22.0013H2C0.9 22.0013 0 21.1013 0 20.0013C0 18.9013 0.9 18.0013 2 18.0013H18C19.1 18.0013 20 18.9013 20 20.0013C20 21.1013 19.1 22.0013 18 22.0013ZM11.06 3.19128L14.81 6.94128L6.04 15.7113C5.86 15.9013 5.6 16.0013 5.34 16.0013H3C2.45 16.0013 2 15.5513 2 15.0013V12.6613C2 12.3913 2.11 12.1413 2.29 11.9513L11.06 3.19128ZM15.88 5.87128L12.13 2.12128L13.96 0.291279C14.35 -0.0987207 14.98 -0.0987207 15.37 0.291279L17.71 2.63128C18.1 3.02128 18.1 3.65128 17.71 4.04128L15.88 5.87128Z"
    fill="#00B4FF" />
</svg>  